<svg width="360" height="120" viewBox="0 0 360 120" fill="none" xmlns="http://www.w3.org/2000/svg">
<rect width="360" height="120" fill="white"/>
<rect x="12" y="21" width="336" height="26" rx="13" fill="#D9D9D9"/>
<rect x="12" y="73" width="336" height="26" rx="13" fill="#D9D9D9"/>
<path d="M24.9261 86.0625V90H23.9205V81.2727H24.9261V84.4773H25.0114C25.1648 84.1392 25.3949 83.8707 25.7017 83.6719C26.0114 83.4702 26.4233 83.3693 26.9375 83.3693C27.3835 83.3693 27.7741 83.4588 28.1094 83.6378C28.4446 83.8139 28.7045 84.0852 28.8892 84.4517C29.0767 84.8153 29.1705 85.2784 29.1705 85.8409V90H28.1648V85.9091C28.1648 85.3892 28.0298 84.9872 27.7599 84.7031C27.4929 84.4162 27.1222 84.2727 26.6477 84.2727C26.3182 84.2727 26.0227 84.3423 25.7614 84.4815C25.5028 84.6207 25.2983 84.8239 25.1477 85.0909C25 85.358 24.9261 85.6818 24.9261 86.0625ZM33.8569 83.4545V84.3068H30.4648V83.4545H33.8569ZM31.4535 81.8864H32.4592V88.125C32.4592 88.4091 32.5004 88.6222 32.5827 88.7642C32.668 88.9034 32.7759 88.9972 32.9066 89.0455C33.0401 89.0909 33.1808 89.1136 33.3285 89.1136C33.4393 89.1136 33.5302 89.108 33.6012 89.0966C33.6722 89.0824 33.729 89.071 33.7717 89.0625L33.9762 89.9659C33.908 89.9915 33.8129 90.017 33.6907 90.0426C33.5685 90.071 33.4137 90.0852 33.2262 90.0852C32.9421 90.0852 32.6637 90.0241 32.391 89.902C32.1211 89.7798 31.8967 89.5938 31.7177 89.3438C31.5415 89.0938 31.4535 88.7784 31.4535 88.3977V81.8864ZM38.2163 83.4545V84.3068H34.8242V83.4545H38.2163ZM35.8129 81.8864H36.8185V88.125C36.8185 88.4091 36.8597 88.6222 36.9421 88.7642C37.0273 88.9034 37.1353 88.9972 37.266 89.0455C37.3995 89.0909 37.5401 89.1136 37.6879 89.1136C37.7987 89.1136 37.8896 89.108 37.9606 89.0966C38.0316 89.0824 38.0884 89.071 38.131 89.0625L38.3356 89.9659C38.2674 89.9915 38.1722 90.017 38.0501 90.0426C37.9279 90.071 37.7731 90.0852 37.5856 90.0852C37.3015 90.0852 37.0231 90.0241 36.7504 89.902C36.4805 89.7798 36.256 89.5938 36.0771 89.3438C35.9009 89.0938 35.8129 88.7784 35.8129 88.3977V81.8864ZM39.729 92.4545V83.4545H40.7006V84.4943H40.82C40.8938 84.3807 40.9961 84.2358 41.1268 84.0597C41.2603 83.8807 41.4506 83.7216 41.6978 83.5824C41.9478 83.4403 42.2859 83.3693 42.712 83.3693C43.2631 83.3693 43.7489 83.5071 44.1694 83.7827C44.5898 84.0582 44.918 84.4489 45.1538 84.9545C45.3896 85.4602 45.5075 86.0568 45.5075 86.7443C45.5075 87.4375 45.3896 88.0384 45.1538 88.5469C44.918 89.0526 44.5913 89.4446 44.1737 89.723C43.756 89.9986 43.2745 90.1364 42.729 90.1364C42.3086 90.1364 41.9719 90.0668 41.7191 89.9276C41.4663 89.7855 41.2717 89.625 41.1353 89.446C40.9989 89.2642 40.8938 89.1136 40.82 88.9943H40.7347V92.4545H39.729ZM40.7177 86.7273C40.7177 87.2216 40.7901 87.6577 40.935 88.0355C41.0799 88.4105 41.2915 88.7045 41.57 88.9176C41.8484 89.1278 42.1893 89.233 42.5927 89.233C43.0131 89.233 43.364 89.1222 43.6452 88.9006C43.9293 88.6761 44.1424 88.375 44.2844 87.9972C44.4293 87.6165 44.5018 87.1932 44.5018 86.7273C44.5018 86.267 44.4308 85.8523 44.2887 85.483C44.1495 85.1108 43.9379 84.8168 43.6538 84.6009C43.3725 84.3821 43.0188 84.2727 42.5927 84.2727C42.1836 84.2727 41.8398 84.3764 41.5614 84.5838C41.283 84.7884 41.0728 85.0753 40.9308 85.4446C40.7887 85.8111 40.7177 86.2386 40.7177 86.7273ZM51.6779 84.9205L50.7745 85.1761C50.7177 85.0256 50.6339 84.8793 50.5231 84.7372C50.4151 84.5923 50.2674 84.473 50.0799 84.3793C49.8924 84.2855 49.6523 84.2386 49.3597 84.2386C48.9592 84.2386 48.6254 84.331 48.3583 84.5156C48.0941 84.6974 47.962 84.929 47.962 85.2102C47.962 85.4602 48.0529 85.6577 48.2347 85.8026C48.4165 85.9474 48.7006 86.0682 49.087 86.1648L50.0586 86.4034C50.6438 86.5455 51.0799 86.7628 51.3668 87.0554C51.6538 87.3452 51.7972 87.7187 51.7972 88.1761C51.7972 88.5511 51.6893 88.8864 51.4734 89.1818C51.2603 89.4773 50.962 89.7102 50.5785 89.8807C50.195 90.0511 49.7489 90.1364 49.2404 90.1364C48.5728 90.1364 48.0202 89.9915 47.5827 89.7017C47.1452 89.4119 46.8683 88.9886 46.7518 88.4318L47.7063 88.1932C47.7972 88.5455 47.9691 88.8097 48.2219 88.9858C48.4776 89.1619 48.8114 89.25 49.2234 89.25C49.6921 89.25 50.0643 89.1506 50.3398 88.9517C50.6183 88.75 50.7575 88.5085 50.7575 88.2273C50.7575 88 50.6779 87.8097 50.5188 87.6562C50.3597 87.5 50.1154 87.3835 49.7859 87.3068L48.695 87.0511C48.0955 86.9091 47.6552 86.6889 47.3739 86.3906C47.0955 86.0895 46.9563 85.7131 46.9563 85.2614C46.9563 84.892 47.06 84.5653 47.2674 84.2812C47.4776 83.9972 47.7631 83.7741 48.1239 83.6122C48.4876 83.4503 48.8995 83.3693 49.3597 83.3693C50.0075 83.3693 50.516 83.5114 50.8853 83.7955C51.2575 84.0795 51.5217 84.4545 51.6779 84.9205ZM54.044 90.0682C53.8338 90.0682 53.6534 89.9929 53.5028 89.8423C53.3523 89.6918 53.277 89.5114 53.277 89.3011C53.277 89.0909 53.3523 88.9105 53.5028 88.7599C53.6534 88.6094 53.8338 88.5341 54.044 88.5341C54.2543 88.5341 54.4347 88.6094 54.5852 88.7599C54.7358 88.9105 54.8111 89.0909 54.8111 89.3011C54.8111 89.4403 54.7756 89.5682 54.7045 89.6847C54.6364 89.8011 54.544 89.8949 54.4276 89.9659C54.3139 90.0341 54.1861 90.0682 54.044 90.0682ZM54.044 85.2102C53.8338 85.2102 53.6534 85.1349 53.5028 84.9844C53.3523 84.8338 53.277 84.6534 53.277 84.4432C53.277 84.233 53.3523 84.0526 53.5028 83.902C53.6534 83.7514 53.8338 83.6761 54.044 83.6761C54.2543 83.6761 54.4347 83.7514 54.5852 83.902C54.7358 84.0526 54.8111 84.233 54.8111 84.4432C54.8111 84.5824 54.7756 84.7102 54.7045 84.8267C54.6364 84.9432 54.544 85.0369 54.4276 85.108C54.3139 85.1761 54.1861 85.2102 54.044 85.2102ZM59.701 80.8636L56.8885 91.3125H55.968L58.7805 80.8636H59.701ZM63.9783 80.8636L61.1658 91.3125H60.2454L63.0579 80.8636H63.9783ZM65.8182 92.4545C65.6477 92.4545 65.4957 92.4403 65.3622 92.4119C65.2287 92.3864 65.1364 92.3608 65.0852 92.3352L65.3409 91.4489C65.5852 91.5114 65.8011 91.5341 65.9886 91.517C66.1761 91.5 66.3423 91.4162 66.4872 91.2656C66.6349 91.1179 66.7699 90.8778 66.892 90.5455L67.0795 90.0341L64.6591 83.4545H65.75L67.5568 88.6705H67.625L69.4318 83.4545H70.5227L67.7443 90.9545C67.6193 91.2926 67.4645 91.5724 67.2798 91.794C67.0952 92.0185 66.8807 92.1847 66.6364 92.2926C66.3949 92.4006 66.1222 92.4545 65.8182 92.4545ZM74.2749 90.1364C73.6839 90.1364 73.1655 89.9957 72.7195 89.7145C72.2763 89.4332 71.9297 89.0398 71.6797 88.5341C71.4325 88.0284 71.3089 87.4375 71.3089 86.7614C71.3089 86.0795 71.4325 85.4844 71.6797 84.9759C71.9297 84.4673 72.2763 84.0724 72.7195 83.7912C73.1655 83.5099 73.6839 83.3693 74.2749 83.3693C74.8658 83.3693 75.3828 83.5099 75.826 83.7912C76.272 84.0724 76.6186 84.4673 76.8658 84.9759C77.1158 85.4844 77.2408 86.0795 77.2408 86.7614C77.2408 87.4375 77.1158 88.0284 76.8658 88.5341C76.6186 89.0398 76.272 89.4332 75.826 89.7145C75.3828 89.9957 74.8658 90.1364 74.2749 90.1364ZM74.2749 89.233C74.7237 89.233 75.093 89.1179 75.3828 88.8878C75.6726 88.6577 75.8871 88.3551 76.0263 87.9801C76.1655 87.6051 76.2351 87.1989 76.2351 86.7614C76.2351 86.3239 76.1655 85.9162 76.0263 85.5384C75.8871 85.1605 75.6726 84.8551 75.3828 84.6222C75.093 84.3892 74.7237 84.2727 74.2749 84.2727C73.826 84.2727 73.4567 84.3892 73.1669 84.6222C72.8771 84.8551 72.6626 85.1605 72.5234 85.5384C72.3842 85.9162 72.3146 86.3239 72.3146 86.7614C72.3146 87.1989 72.3842 87.6051 72.5234 87.9801C72.6626 88.3551 72.8771 88.6577 73.1669 88.8878C73.4567 89.1179 73.826 89.233 74.2749 89.233ZM82.9009 87.3239V83.4545H83.9066V90H82.9009V88.892H82.8327C82.6793 89.2244 82.4407 89.5071 82.1168 89.7401C81.793 89.9702 81.3839 90.0852 80.8896 90.0852C80.4805 90.0852 80.1168 89.9957 79.7987 89.8168C79.4805 89.6349 79.2305 89.3622 79.0487 88.9986C78.8668 88.6321 78.7759 88.1705 78.7759 87.6136V83.4545H79.7816V87.5455C79.7816 88.0227 79.9151 88.4034 80.1822 88.6875C80.4521 88.9716 80.7958 89.1136 81.2134 89.1136C81.4634 89.1136 81.7177 89.0497 81.9762 88.9219C82.2376 88.794 82.4563 88.598 82.6325 88.3338C82.8114 88.0696 82.9009 87.733 82.9009 87.3239ZM88.5952 83.4545V84.3068H85.2031V83.4545H88.5952ZM86.1918 81.8864H87.1974V88.125C87.1974 88.4091 87.2386 88.6222 87.321 88.7642C87.4063 88.9034 87.5142 88.9972 87.6449 89.0455C87.7784 89.0909 87.919 89.1136 88.0668 89.1136C88.1776 89.1136 88.2685 89.108 88.3395 89.0966C88.4105 89.0824 88.4673 89.071 88.5099 89.0625L88.7145 89.9659C88.6463 89.9915 88.5511 90.017 88.429 90.0426C88.3068 90.071 88.152 90.0852 87.9645 90.0852C87.6804 90.0852 87.402 90.0241 87.1293 89.902C86.8594 89.7798 86.6349 89.5938 86.456 89.3438C86.2798 89.0938 86.1918 88.7784 86.1918 88.3977V81.8864ZM94.233 87.3239V83.4545H95.2386V90H94.233V88.892H94.1648C94.0114 89.2244 93.7727 89.5071 93.4489 89.7401C93.125 89.9702 92.7159 90.0852 92.2216 90.0852C91.8125 90.0852 91.4489 89.9957 91.1307 89.8168C90.8125 89.6349 90.5625 89.3622 90.3807 88.9986C90.1989 88.6321 90.108 88.1705 90.108 87.6136V83.4545H91.1136V87.5455C91.1136 88.0227 91.2472 88.4034 91.5142 88.6875C91.7841 88.9716 92.1278 89.1136 92.5455 89.1136C92.7955 89.1136 93.0497 89.0497 93.3082 88.9219C93.5696 88.794 93.7884 88.598 93.9645 88.3338C94.1435 88.0696 94.233 87.733 94.233 87.3239ZM97.217 90V81.2727H98.2227V84.4943H98.3079C98.3817 84.3807 98.484 84.2358 98.6147 84.0597C98.7482 83.8807 98.9386 83.7216 99.1857 83.5824C99.4357 83.4403 99.7738 83.3693 100.2 83.3693C100.751 83.3693 101.237 83.5071 101.657 83.7827C102.078 84.0582 102.406 84.4489 102.642 84.9545C102.877 85.4602 102.995 86.0568 102.995 86.7443C102.995 87.4375 102.877 88.0384 102.642 88.5469C102.406 89.0526 102.079 89.4446 101.662 89.723C101.244 89.9986 100.762 90.1364 100.217 90.1364C99.7965 90.1364 99.4599 90.0668 99.207 89.9276C98.9542 89.7855 98.7596 89.625 98.6232 89.446C98.4869 89.2642 98.3817 89.1136 98.3079 88.9943H98.1886V90H97.217ZM98.2056 86.7273C98.2056 87.2216 98.2781 87.6577 98.4229 88.0355C98.5678 88.4105 98.7795 88.7045 99.0579 88.9176C99.3363 89.1278 99.6772 89.233 100.081 89.233C100.501 89.233 100.852 89.1222 101.133 88.9006C101.417 88.6761 101.63 88.375 101.772 87.9972C101.917 87.6165 101.99 87.1932 101.99 86.7273C101.99 86.267 101.919 85.8523 101.777 85.483C101.637 85.1108 101.426 84.8168 101.142 84.6009C100.86 84.3821 100.507 84.2727 100.081 84.2727C99.6715 84.2727 99.3278 84.3764 99.0494 84.5838C98.771 84.7884 98.5607 85.0753 98.4187 85.4446C98.2766 85.8111 98.2056 86.2386 98.2056 86.7273ZM107.278 90.1364C106.647 90.1364 106.103 89.9972 105.646 89.7188C105.191 89.4375 104.841 89.0455 104.593 88.5426C104.349 88.0369 104.227 87.4489 104.227 86.7784C104.227 86.108 104.349 85.517 104.593 85.0057C104.841 84.4915 105.184 84.0909 105.625 83.804C106.068 83.5142 106.585 83.3693 107.176 83.3693C107.517 83.3693 107.853 83.4261 108.186 83.5398C108.518 83.6534 108.821 83.8381 109.093 84.0938C109.366 84.3466 109.583 84.6818 109.745 85.0994C109.907 85.517 109.988 86.0312 109.988 86.642V87.0682H104.943V86.1989H108.966C108.966 85.8295 108.892 85.5 108.744 85.2102C108.599 84.9205 108.392 84.6918 108.122 84.5241C107.855 84.3565 107.539 84.2727 107.176 84.2727C106.775 84.2727 106.429 84.3722 106.136 84.571C105.846 84.767 105.623 85.0227 105.467 85.3381C105.311 85.6534 105.233 85.9915 105.233 86.3523V86.9318C105.233 87.4261 105.318 87.8452 105.488 88.1889C105.662 88.5298 105.902 88.7898 106.208 88.9688C106.515 89.1449 106.872 89.233 107.278 89.233C107.542 89.233 107.781 89.196 107.994 89.1222C108.21 89.0455 108.396 88.9318 108.552 88.7812C108.708 88.6278 108.829 88.4375 108.914 88.2102L109.886 88.483C109.784 88.8125 109.612 89.1023 109.37 89.3523C109.129 89.5994 108.831 89.7926 108.475 89.9318C108.12 90.0682 107.721 90.1364 107.278 90.1364ZM112.251 90.0682C112.041 90.0682 111.86 89.9929 111.71 89.8423C111.559 89.6918 111.484 89.5114 111.484 89.3011C111.484 89.0909 111.559 88.9105 111.71 88.7599C111.86 88.6094 112.041 88.5341 112.251 88.5341C112.461 88.5341 112.642 88.6094 112.792 88.7599C112.943 88.9105 113.018 89.0909 113.018 89.3011C113.018 89.4403 112.983 89.5682 112.912 89.6847C112.843 89.8011 112.751 89.8949 112.635 89.9659C112.521 90.0341 112.393 90.0682 112.251 90.0682ZM116.851 86.3182V90H114.499V81.2727H116.766V84.6989H116.834C116.982 84.2812 117.228 83.956 117.571 83.723C117.915 83.4872 118.328 83.3693 118.811 83.3693C119.275 83.3693 119.676 83.4744 120.017 83.6847C120.361 83.8949 120.627 84.1847 120.814 84.554C121.005 84.9233 121.098 85.3466 121.096 85.8239V90H118.743V86.3182C118.746 85.9943 118.665 85.7401 118.5 85.5554C118.338 85.3707 118.107 85.2784 117.806 85.2784C117.615 85.2784 117.448 85.321 117.303 85.4062C117.161 85.4886 117.05 85.608 116.971 85.7642C116.894 85.9176 116.854 86.1023 116.851 86.3182ZM122.257 90V83.4545H124.609V90H122.257ZM123.433 82.7727C123.115 82.7727 122.842 82.6676 122.615 82.4574C122.387 82.2472 122.274 81.9943 122.274 81.6989C122.274 81.4034 122.387 81.1506 122.615 80.9403C122.842 80.7301 123.115 80.625 123.433 80.625C123.754 80.625 124.027 80.7301 124.251 80.9403C124.478 81.1506 124.592 81.4034 124.592 81.6989C124.592 81.9943 124.478 82.2472 124.251 82.4574C124.027 82.6676 123.754 82.7727 123.433 82.7727ZM125.808 90V83.4545H128.092V84.6989H128.16C128.279 84.2386 128.468 83.902 128.727 83.6889C128.988 83.4759 129.293 83.3693 129.643 83.3693C129.745 83.3693 129.846 83.3778 129.945 83.3949C130.048 83.4091 130.146 83.4304 130.239 83.4588V85.4659C130.123 85.4261 129.979 85.3963 129.809 85.3764C129.638 85.3565 129.492 85.3466 129.37 85.3466C129.14 85.3466 128.933 85.3991 128.748 85.5043C128.566 85.6065 128.423 85.7514 128.317 85.9389C128.212 86.1236 128.16 86.3409 128.16 86.5909V90H125.808ZM133.789 90.1193C133.079 90.1193 132.471 89.9787 131.965 89.6974C131.46 89.4134 131.072 89.0185 130.802 88.5128C130.532 88.0043 130.397 87.4148 130.397 86.7443C130.397 86.0739 130.532 85.4858 130.802 84.9801C131.072 84.4716 131.46 84.0767 131.965 83.7955C132.471 83.5114 133.079 83.3693 133.789 83.3693C134.499 83.3693 135.107 83.5114 135.613 83.7955C136.119 84.0767 136.506 84.4716 136.776 84.9801C137.046 85.4858 137.181 86.0739 137.181 86.7443C137.181 87.4148 137.046 88.0043 136.776 88.5128C136.506 89.0185 136.119 89.4134 135.613 89.6974C135.107 89.9787 134.499 90.1193 133.789 90.1193ZM133.806 88.3807C134.005 88.3807 134.177 88.3139 134.322 88.1804C134.467 88.0469 134.579 87.8565 134.658 87.6094C134.738 87.3622 134.778 87.0682 134.778 86.7273C134.778 86.3835 134.738 86.0895 134.658 85.8452C134.579 85.598 134.467 85.4077 134.322 85.2741C134.177 85.1406 134.005 85.0739 133.806 85.0739C133.596 85.0739 133.415 85.1406 133.265 85.2741C133.114 85.4077 132.999 85.598 132.92 85.8452C132.84 86.0895 132.8 86.3835 132.8 86.7273C132.8 87.0682 132.84 87.3622 132.92 87.6094C132.999 87.8565 133.114 88.0469 133.265 88.1804C133.415 88.3139 133.596 88.3807 133.806 88.3807ZM140.249 88.4489L140.266 85.6534H140.573L142.158 83.4545H144.8L142.141 86.8807H141.477L140.249 88.4489ZM138.136 90V81.2727H140.488V90H138.136ZM142.175 90L140.675 87.4091L142.21 85.7386L144.869 90H142.175ZM145.413 90V83.4545H147.765V90H145.413ZM146.589 82.7727C146.271 82.7727 145.998 82.6676 145.771 82.4574C145.544 82.2472 145.43 81.9943 145.43 81.6989C145.43 81.4034 145.544 81.1506 145.771 80.9403C145.998 80.7301 146.271 80.625 146.589 80.625C146.91 80.625 147.183 80.7301 147.407 80.9403C147.635 81.1506 147.748 81.4034 147.748 81.6989C147.748 81.9943 147.635 82.2472 147.407 82.4574C147.183 82.6676 146.91 82.7727 146.589 82.7727ZM150.123 90L148.487 83.4545H150.839L151.589 87.4432H151.64L152.475 83.4545H154.759L155.629 87.4091H155.68L156.396 83.4545H158.748L157.112 90H154.572L153.651 86.4886H153.583L152.663 90H150.123ZM161.288 90.1023C160.87 90.1023 160.501 90.0341 160.18 89.8977C159.862 89.7585 159.612 89.5483 159.43 89.267C159.248 88.9858 159.157 88.6278 159.157 88.1932C159.157 87.8352 159.218 87.5298 159.34 87.277C159.462 87.0213 159.633 86.8125 159.852 86.6506C160.07 86.4886 160.325 86.3651 160.614 86.2798C160.907 86.1946 161.222 86.1392 161.56 86.1136C161.927 86.0852 162.221 86.0511 162.442 86.0114C162.667 85.9687 162.829 85.9105 162.928 85.8366C163.028 85.7599 163.077 85.6591 163.077 85.5341V85.517C163.077 85.3466 163.012 85.2159 162.881 85.125C162.751 85.0341 162.583 84.9886 162.379 84.9886C162.154 84.9886 161.971 85.0384 161.829 85.1378C161.69 85.2344 161.606 85.3835 161.577 85.5852H159.413C159.441 85.1875 159.567 84.821 159.792 84.4858C160.019 84.1477 160.35 83.8778 160.785 83.6761C161.219 83.4716 161.762 83.3693 162.413 83.3693C162.881 83.3693 163.302 83.4247 163.674 83.5355C164.046 83.6435 164.363 83.7955 164.624 83.9915C164.886 84.1847 165.085 84.4119 165.221 84.6733C165.36 84.9318 165.43 85.2131 165.43 85.517V90H163.231V89.0795H163.18C163.049 89.3239 162.89 89.5213 162.702 89.6719C162.518 89.8224 162.306 89.9318 162.067 90C161.832 90.0682 161.572 90.1023 161.288 90.1023ZM162.055 88.6193C162.234 88.6193 162.401 88.5824 162.558 88.5085C162.717 88.4347 162.846 88.3281 162.945 88.1889C163.045 88.0497 163.094 87.8807 163.094 87.6818V87.1364C163.032 87.1619 162.965 87.1861 162.894 87.2088C162.826 87.2315 162.752 87.2528 162.673 87.2727C162.596 87.2926 162.513 87.3111 162.425 87.3281C162.34 87.3452 162.251 87.3608 162.157 87.375C161.975 87.4034 161.826 87.4503 161.71 87.5156C161.596 87.5781 161.511 87.6562 161.454 87.75C161.4 87.8409 161.373 87.9432 161.373 88.0568C161.373 88.2386 161.437 88.3778 161.565 88.4744C161.692 88.571 161.856 88.6193 162.055 88.6193ZM167.832 90.1364C167.502 90.1364 167.22 90.0213 166.984 89.7912C166.751 89.5582 166.636 89.2756 166.639 88.9432C166.636 88.6193 166.751 88.3423 166.984 88.1122C167.22 87.8821 167.502 87.767 167.832 87.767C168.145 87.767 168.42 87.8821 168.659 88.1122C168.9 88.3423 169.022 88.6193 169.025 88.9432C169.022 89.1648 168.964 89.3665 168.85 89.5483C168.74 89.7273 168.595 89.8707 168.416 89.9787C168.237 90.0838 168.042 90.1364 167.832 90.1364ZM173.287 90.1364C172.673 90.1364 172.145 89.9915 171.701 89.7017C171.258 89.4119 170.917 89.0128 170.679 88.5043C170.44 87.9957 170.321 87.4148 170.321 86.7614C170.321 86.0966 170.443 85.5099 170.687 85.0014C170.934 84.4901 171.278 84.0909 171.718 83.804C172.162 83.5142 172.679 83.3693 173.27 83.3693C173.73 83.3693 174.145 83.4545 174.514 83.625C174.883 83.7955 175.186 84.0341 175.422 84.3409C175.657 84.6477 175.804 85.0057 175.86 85.4148H174.855C174.778 85.1165 174.608 84.8523 174.343 84.6222C174.082 84.3892 173.73 84.2727 173.287 84.2727C172.895 84.2727 172.551 84.375 172.255 84.5795C171.963 84.7812 171.734 85.0668 171.569 85.4361C171.407 85.8026 171.326 86.233 171.326 86.7273C171.326 87.233 171.406 87.6733 171.565 88.0483C171.727 88.4233 171.954 88.7145 172.247 88.9219C172.542 89.1293 172.889 89.233 173.287 89.233C173.548 89.233 173.785 89.1875 173.998 89.0966C174.211 89.0057 174.392 88.875 174.539 88.7045C174.687 88.5341 174.792 88.3295 174.855 88.0909H175.86C175.804 88.4773 175.663 88.8253 175.439 89.1349C175.217 89.4418 174.923 89.6861 174.556 89.8679C174.193 90.0469 173.77 90.1364 173.287 90.1364ZM179.99 90.1364C179.399 90.1364 178.88 89.9957 178.434 89.7145C177.991 89.4332 177.645 89.0398 177.395 88.5341C177.147 88.0284 177.024 87.4375 177.024 86.7614C177.024 86.0795 177.147 85.4844 177.395 84.9759C177.645 84.4673 177.991 84.0724 178.434 83.7912C178.88 83.5099 179.399 83.3693 179.99 83.3693C180.581 83.3693 181.098 83.5099 181.541 83.7912C181.987 84.0724 182.333 84.4673 182.581 84.9759C182.831 85.4844 182.956 86.0795 182.956 86.7614C182.956 87.4375 182.831 88.0284 182.581 88.5341C182.333 89.0398 181.987 89.4332 181.541 89.7145C181.098 89.9957 180.581 90.1364 179.99 90.1364ZM179.99 89.233C180.439 89.233 180.808 89.1179 181.098 88.8878C181.387 88.6577 181.602 88.3551 181.741 87.9801C181.88 87.6051 181.95 87.1989 181.95 86.7614C181.95 86.3239 181.88 85.9162 181.741 85.5384C181.602 85.1605 181.387 84.8551 181.098 84.6222C180.808 84.3892 180.439 84.2727 179.99 84.2727C179.541 84.2727 179.172 84.3892 178.882 84.6222C178.592 84.8551 178.377 85.1605 178.238 85.5384C178.099 85.9162 178.029 86.3239 178.029 86.7614C178.029 87.1989 178.099 87.6051 178.238 87.9801C178.377 88.3551 178.592 88.6577 178.882 88.8878C179.172 89.1179 179.541 89.233 179.99 89.233ZM184.491 90V83.4545H185.462V84.4773H185.548C185.684 84.1278 185.904 83.8565 186.208 83.6634C186.512 83.4673 186.877 83.3693 187.303 83.3693C187.735 83.3693 188.094 83.4673 188.381 83.6634C188.671 83.8565 188.897 84.1278 189.059 84.4773H189.127C189.295 84.1392 189.546 83.8707 189.881 83.6719C190.217 83.4702 190.619 83.3693 191.087 83.3693C191.673 83.3693 192.151 83.5526 192.523 83.919C192.896 84.2827 193.082 84.8494 193.082 85.6193V90H192.076V85.6193C192.076 85.1364 191.944 84.7912 191.68 84.5838C191.415 84.3764 191.104 84.2727 190.746 84.2727C190.286 84.2727 189.93 84.4119 189.677 84.6903C189.424 84.9659 189.298 85.3153 189.298 85.7386V90H188.275V85.517C188.275 85.1449 188.154 84.8452 187.913 84.6179C187.671 84.3878 187.36 84.2727 186.979 84.2727C186.718 84.2727 186.474 84.3423 186.246 84.4815C186.022 84.6207 185.84 84.8139 185.701 85.0611C185.565 85.3054 185.496 85.5881 185.496 85.9091V90H184.491ZM198.006 80.8636L195.193 91.3125H194.273L197.085 80.8636H198.006ZM200.681 90L198.686 83.4545H199.743L201.158 88.4659H201.226L202.624 83.4545H203.698L205.078 88.4489H205.147L206.561 83.4545H207.618L205.624 90H204.635L203.203 84.9716H203.101L201.669 90H200.681ZM210.874 90.1534C210.459 90.1534 210.083 90.0753 209.745 89.919C209.407 89.7599 209.138 89.5312 208.939 89.233C208.74 88.9318 208.641 88.5682 208.641 88.142C208.641 87.767 208.715 87.4631 208.863 87.2301C209.01 86.9943 209.208 86.8097 209.455 86.6761C209.702 86.5426 209.975 86.4432 210.273 86.3778C210.574 86.3097 210.877 86.2557 211.181 86.2159C211.578 86.1648 211.901 86.1264 212.148 86.1009C212.398 86.0724 212.58 86.0256 212.694 85.9602C212.81 85.8949 212.868 85.7812 212.868 85.6193V85.5852C212.868 85.1648 212.753 84.8381 212.523 84.6051C212.296 84.3722 211.951 84.2557 211.488 84.2557C211.007 84.2557 210.631 84.3608 210.358 84.571C210.086 84.7812 209.894 85.0057 209.783 85.2443L208.828 84.9034C208.999 84.5057 209.226 84.196 209.51 83.9744C209.797 83.75 210.11 83.5937 210.448 83.5057C210.789 83.4148 211.124 83.3693 211.453 83.3693C211.664 83.3693 211.905 83.3949 212.178 83.446C212.453 83.4943 212.719 83.5952 212.975 83.7486C213.233 83.902 213.448 84.1335 213.618 84.4432C213.789 84.7528 213.874 85.1676 213.874 85.6875V90H212.868V89.1136H212.817C212.749 89.2557 212.635 89.4077 212.476 89.5696C212.317 89.7315 212.105 89.8693 211.841 89.983C211.577 90.0966 211.255 90.1534 210.874 90.1534ZM211.027 89.25C211.425 89.25 211.76 89.1719 212.033 89.0156C212.309 88.8594 212.516 88.6577 212.655 88.4105C212.797 88.1634 212.868 87.9034 212.868 87.6307V86.7102C212.826 86.7614 212.732 86.8082 212.587 86.8509C212.445 86.8906 212.28 86.9261 212.093 86.9574C211.908 86.9858 211.728 87.0114 211.551 87.0341C211.378 87.054 211.238 87.071 211.13 87.0852C210.868 87.1193 210.624 87.1747 210.397 87.2514C210.172 87.3253 209.99 87.4375 209.851 87.5881C209.715 87.7358 209.647 87.9375 209.647 88.1932C209.647 88.5426 209.776 88.8068 210.034 88.9858C210.296 89.1619 210.627 89.25 211.027 89.25ZM218.556 83.4545V84.3068H215.164V83.4545H218.556ZM216.153 81.8864H217.158V88.125C217.158 88.4091 217.2 88.6222 217.282 88.7642C217.367 88.9034 217.475 88.9972 217.606 89.0455C217.739 89.0909 217.88 89.1136 218.028 89.1136C218.138 89.1136 218.229 89.108 218.3 89.0966C218.371 89.0824 218.428 89.071 218.471 89.0625L218.675 89.9659C218.607 89.9915 218.512 90.017 218.39 90.0426C218.268 90.071 218.113 90.0852 217.925 90.0852C217.641 90.0852 217.363 90.0241 217.09 89.902C216.82 89.7798 216.596 89.5938 216.417 89.3438C216.241 89.0938 216.153 88.7784 216.153 88.3977V81.8864ZM222.658 90.1364C222.044 90.1364 221.516 89.9915 221.072 89.7017C220.629 89.4119 220.288 89.0128 220.05 88.5043C219.811 87.9957 219.692 87.4148 219.692 86.7614C219.692 86.0966 219.814 85.5099 220.058 85.0014C220.305 84.4901 220.649 84.0909 221.089 83.804C221.533 83.5142 222.05 83.3693 222.641 83.3693C223.101 83.3693 223.516 83.4545 223.885 83.625C224.254 83.7955 224.557 84.0341 224.793 84.3409C225.028 84.6477 225.175 85.0057 225.232 85.4148H224.226C224.149 85.1165 223.979 84.8523 223.714 84.6222C223.453 84.3892 223.101 84.2727 222.658 84.2727C222.266 84.2727 221.922 84.375 221.626 84.5795C221.334 84.7812 221.105 85.0668 220.94 85.4361C220.778 85.8026 220.697 86.233 220.697 86.7273C220.697 87.233 220.777 87.6733 220.936 88.0483C221.098 88.4233 221.325 88.7145 221.618 88.9219C221.913 89.1293 222.26 89.233 222.658 89.233C222.919 89.233 223.156 89.1875 223.369 89.0966C223.582 89.0057 223.763 88.875 223.911 88.7045C224.058 88.5341 224.163 88.3295 224.226 88.0909H225.232C225.175 88.4773 225.034 88.8253 224.81 89.1349C224.588 89.4418 224.294 89.6861 223.928 89.8679C223.564 90.0469 223.141 90.1364 222.658 90.1364ZM227.707 86.0625V90H226.702V81.2727H227.707V84.4773H227.793C227.946 84.1392 228.176 83.8707 228.483 83.6719C228.793 83.4702 229.205 83.3693 229.719 83.3693C230.165 83.3693 230.555 83.4588 230.891 83.6378C231.226 83.8139 231.486 84.0852 231.67 84.4517C231.858 84.8153 231.952 85.2784 231.952 85.8409V90H230.946V85.9091C230.946 85.3892 230.811 84.9872 230.541 84.7031C230.274 84.4162 229.903 84.2727 229.429 84.2727C229.099 84.2727 228.804 84.3423 228.543 84.4815C228.284 84.6207 228.08 84.8239 227.929 85.0909C227.781 85.358 227.707 85.6818 227.707 86.0625ZM236.877 80.8636L234.064 91.3125H233.144L235.956 80.8636H236.877ZM239.381 87.5455V87.4943C239.387 86.9517 239.444 86.5199 239.552 86.1989C239.66 85.8778 239.813 85.6179 240.012 85.419C240.211 85.2202 240.45 85.0369 240.728 84.8693C240.896 84.767 241.046 84.6463 241.18 84.5071C241.313 84.3651 241.418 84.2017 241.495 84.017C241.575 83.8324 241.614 83.6278 241.614 83.4034C241.614 83.125 241.549 82.8835 241.418 82.679C241.288 82.4744 241.113 82.3168 240.894 82.206C240.675 82.0952 240.433 82.0398 240.165 82.0398C239.933 82.0398 239.708 82.0881 239.492 82.1847C239.276 82.2812 239.096 82.4332 238.951 82.6406C238.806 82.848 238.722 83.1193 238.7 83.4545H237.626C237.648 82.9716 237.773 82.5582 238.001 82.2145C238.231 81.8707 238.533 81.608 238.908 81.4261C239.286 81.2443 239.705 81.1534 240.165 81.1534C240.665 81.1534 241.1 81.2528 241.469 81.4517C241.842 81.6506 242.129 81.9233 242.33 82.2699C242.535 82.6165 242.637 83.0114 242.637 83.4545C242.637 83.767 242.589 84.0497 242.492 84.3026C242.398 84.5554 242.262 84.7812 242.083 84.9801C241.907 85.179 241.694 85.3551 241.444 85.5085C241.194 85.6648 240.994 85.8295 240.843 86.0028C240.692 86.1733 240.583 86.3764 240.515 86.6122C240.447 86.848 240.41 87.142 240.404 87.4943V87.5455H239.381ZM239.927 90.0682C239.717 90.0682 239.536 89.9929 239.386 89.8423C239.235 89.6918 239.16 89.5114 239.16 89.3011C239.16 89.0909 239.235 88.9105 239.386 88.7599C239.536 88.6094 239.717 88.5341 239.927 88.5341C240.137 88.5341 240.317 88.6094 240.468 88.7599C240.619 88.9105 240.694 89.0909 240.694 89.3011C240.694 89.4403 240.658 89.5682 240.587 89.6847C240.519 89.8011 240.427 89.8949 240.31 89.9659C240.197 90.0341 240.069 90.0682 239.927 90.0682ZM249.503 83.4545L247.083 90H246.06L243.64 83.4545H244.73L246.537 88.6705H246.605L248.412 83.4545H249.503ZM250.759 85.7898V84.8693H256.009V85.7898H250.759ZM250.759 88.3125V87.392H256.009V88.3125H250.759ZM258.6 83.4545L260.168 86.1307L261.737 83.4545H262.896L260.782 86.7273L262.896 90H261.737L260.168 87.4602L258.6 90H257.441L259.521 86.7273L257.441 83.4545H258.6ZM265.081 83.4545L266.649 86.1307L268.217 83.4545H269.376L267.262 86.7273L269.376 90H268.217L266.649 87.4602L265.081 90H263.922L266.001 86.7273L263.922 83.4545H265.081ZM271.561 83.4545L273.129 86.1307L274.697 83.4545H275.857L273.743 86.7273L275.857 90H274.697L273.129 87.4602L271.561 90H270.402L272.482 86.7273L270.402 83.4545H271.561ZM278.042 83.4545L279.61 86.1307L281.178 83.4545H282.337L280.223 86.7273L282.337 90H281.178L279.61 87.4602L278.042 90H276.882L278.962 86.7273L276.882 83.4545H278.042ZM284.522 83.4545L286.09 86.1307L287.658 83.4545H288.817L286.704 86.7273L288.817 90H287.658L286.09 87.4602L284.522 90H283.363L285.442 86.7273L283.363 83.4545H284.522ZM291.002 83.4545L292.571 86.1307L294.139 83.4545H295.298L293.184 86.7273L295.298 90H294.139L292.571 87.4602L291.002 90H289.843L291.923 86.7273L289.843 83.4545H291.002ZM297.483 83.4545L299.051 86.1307L300.619 83.4545H301.778L299.665 86.7273L301.778 90H300.619L299.051 87.4602L297.483 90H296.324L298.403 86.7273L296.324 83.4545H297.483ZM303.963 83.4545L305.532 86.1307L307.1 83.4545H308.259L306.145 86.7273L308.259 90H307.1L305.532 87.4602L303.963 90H302.804L304.884 86.7273L302.804 83.4545H303.963ZM310.444 83.4545L312.012 86.1307L313.58 83.4545H314.739L312.626 86.7273L314.739 90H313.58L312.012 87.4602L310.444 90H309.285L311.364 86.7273L309.285 83.4545H310.444ZM316.924 83.4545L318.493 86.1307L320.061 83.4545H321.22L319.106 86.7273L321.22 90H320.061L318.493 87.4602L316.924 90H315.765L317.845 86.7273L315.765 83.4545H316.924Z" fill="black"/>
<path d="M24.9261 34.0625V38H23.9205V29.2727H24.9261V32.4773H25.0114C25.1648 32.1392 25.3949 31.8707 25.7017 31.6719C26.0114 31.4702 26.4233 31.3693 26.9375 31.3693C27.3835 31.3693 27.7741 31.4588 28.1094 31.6378C28.4446 31.8139 28.7045 32.0852 28.8892 32.4517C29.0767 32.8153 29.1705 33.2784 29.1705 33.8409V38H28.1648V33.9091C28.1648 33.3892 28.0298 32.9872 27.7599 32.7031C27.4929 32.4162 27.1222 32.2727 26.6477 32.2727C26.3182 32.2727 26.0227 32.3423 25.7614 32.4815C25.5028 32.6207 25.2983 32.8239 25.1477 33.0909C25 33.358 24.9261 33.6818 24.9261 34.0625ZM33.8569 31.4545V32.3068H30.4648V31.4545H33.8569ZM31.4535 29.8864H32.4592V36.125C32.4592 36.4091 32.5004 36.6222 32.5827 36.7642C32.668 36.9034 32.7759 36.9972 32.9066 37.0455C33.0401 37.0909 33.1808 37.1136 33.3285 37.1136C33.4393 37.1136 33.5302 37.108 33.6012 37.0966C33.6722 37.0824 33.729 37.071 33.7717 37.0625L33.9762 37.9659C33.908 37.9915 33.8129 38.017 33.6907 38.0426C33.5685 38.071 33.4137 38.0852 33.2262 38.0852C32.9421 38.0852 32.6637 38.0241 32.391 37.902C32.1211 37.7798 31.8967 37.5938 31.7177 37.3438C31.5415 37.0938 31.4535 36.7784 31.4535 36.3977V29.8864ZM38.2163 31.4545V32.3068H34.8242V31.4545H38.2163ZM35.8129 29.8864H36.8185V36.125C36.8185 36.4091 36.8597 36.6222 36.9421 36.7642C37.0273 36.9034 37.1353 36.9972 37.266 37.0455C37.3995 37.0909 37.5401 37.1136 37.6879 37.1136C37.7987 37.1136 37.8896 37.108 37.9606 37.0966C38.0316 37.0824 38.0884 37.071 38.131 37.0625L38.3356 37.9659C38.2674 37.9915 38.1722 38.017 38.0501 38.0426C37.9279 38.071 37.7731 38.0852 37.5856 38.0852C37.3015 38.0852 37.0231 38.0241 36.7504 37.902C36.4805 37.7798 36.256 37.5938 36.0771 37.3438C35.9009 37.0938 35.8129 36.7784 35.8129 36.3977V29.8864ZM39.729 40.4545V31.4545H40.7006V32.4943H40.82C40.8938 32.3807 40.9961 32.2358 41.1268 32.0597C41.2603 31.8807 41.4506 31.7216 41.6978 31.5824C41.9478 31.4403 42.2859 31.3693 42.712 31.3693C43.2631 31.3693 43.7489 31.5071 44.1694 31.7827C44.5898 32.0582 44.918 32.4489 45.1538 32.9545C45.3896 33.4602 45.5075 34.0568 45.5075 34.7443C45.5075 35.4375 45.3896 36.0384 45.1538 36.5469C44.918 37.0526 44.5913 37.4446 44.1737 37.723C43.756 37.9986 43.2745 38.1364 42.729 38.1364C42.3086 38.1364 41.9719 38.0668 41.7191 37.9276C41.4663 37.7855 41.2717 37.625 41.1353 37.446C40.9989 37.2642 40.8938 37.1136 40.82 36.9943H40.7347V40.4545H39.729ZM40.7177 34.7273C40.7177 35.2216 40.7901 35.6577 40.935 36.0355C41.0799 36.4105 41.2915 36.7045 41.57 36.9176C41.8484 37.1278 42.1893 37.233 42.5927 37.233C43.0131 37.233 43.364 37.1222 43.6452 36.9006C43.9293 36.6761 44.1424 36.375 44.2844 35.9972C44.4293 35.6165 44.5018 35.1932 44.5018 34.7273C44.5018 34.267 44.4308 33.8523 44.2887 33.483C44.1495 33.1108 43.9379 32.8168 43.6538 32.6009C43.3725 32.3821 43.0188 32.2727 42.5927 32.2727C42.1836 32.2727 41.8398 32.3764 41.5614 32.5838C41.283 32.7884 41.0728 33.0753 40.9308 33.4446C40.7887 33.8111 40.7177 34.2386 40.7177 34.7273ZM51.6779 32.9205L50.7745 33.1761C50.7177 33.0256 50.6339 32.8793 50.5231 32.7372C50.4151 32.5923 50.2674 32.473 50.0799 32.3793C49.8924 32.2855 49.6523 32.2386 49.3597 32.2386C48.9592 32.2386 48.6254 32.331 48.3583 32.5156C48.0941 32.6974 47.962 32.929 47.962 33.2102C47.962 33.4602 48.0529 33.6577 48.2347 33.8026C48.4165 33.9474 48.7006 34.0682 49.087 34.1648L50.0586 34.4034C50.6438 34.5455 51.0799 34.7628 51.3668 35.0554C51.6538 35.3452 51.7972 35.7187 51.7972 36.1761C51.7972 36.5511 51.6893 36.8864 51.4734 37.1818C51.2603 37.4773 50.962 37.7102 50.5785 37.8807C50.195 38.0511 49.7489 38.1364 49.2404 38.1364C48.5728 38.1364 48.0202 37.9915 47.5827 37.7017C47.1452 37.4119 46.8683 36.9886 46.7518 36.4318L47.7063 36.1932C47.7972 36.5455 47.9691 36.8097 48.2219 36.9858C48.4776 37.1619 48.8114 37.25 49.2234 37.25C49.6921 37.25 50.0643 37.1506 50.3398 36.9517C50.6183 36.75 50.7575 36.5085 50.7575 36.2273C50.7575 36 50.6779 35.8097 50.5188 35.6562C50.3597 35.5 50.1154 35.3835 49.7859 35.3068L48.695 35.0511C48.0955 34.9091 47.6552 34.6889 47.3739 34.3906C47.0955 34.0895 46.9563 33.7131 46.9563 33.2614C46.9563 32.892 47.06 32.5653 47.2674 32.2812C47.4776 31.9972 47.7631 31.7741 48.1239 31.6122C48.4876 31.4503 48.8995 31.3693 49.3597 31.3693C50.0075 31.3693 50.516 31.5114 50.8853 31.7955C51.2575 32.0795 51.5217 32.4545 51.6779 32.9205ZM54.044 38.0682C53.8338 38.0682 53.6534 37.9929 53.5028 37.8423C53.3523 37.6918 53.277 37.5114 53.277 37.3011C53.277 37.0909 53.3523 36.9105 53.5028 36.7599C53.6534 36.6094 53.8338 36.5341 54.044 36.5341C54.2543 36.5341 54.4347 36.6094 54.5852 36.7599C54.7358 36.9105 54.8111 37.0909 54.8111 37.3011C54.8111 37.4403 54.7756 37.5682 54.7045 37.6847C54.6364 37.8011 54.544 37.8949 54.4276 37.9659C54.3139 38.0341 54.1861 38.0682 54.044 38.0682ZM54.044 33.2102C53.8338 33.2102 53.6534 33.1349 53.5028 32.9844C53.3523 32.8338 53.277 32.6534 53.277 32.4432C53.277 32.233 53.3523 32.0526 53.5028 31.902C53.6534 31.7514 53.8338 31.6761 54.044 31.6761C54.2543 31.6761 54.4347 31.7514 54.5852 31.902C54.7358 32.0526 54.8111 32.233 54.8111 32.4432C54.8111 32.5824 54.7756 32.7102 54.7045 32.8267C54.6364 32.9432 54.544 33.0369 54.4276 33.108C54.3139 33.1761 54.1861 33.2102 54.044 33.2102ZM59.701 28.8636L56.8885 39.3125H55.968L58.7805 28.8636H59.701ZM63.9783 28.8636L61.1658 39.3125H60.2454L63.0579 28.8636H63.9783ZM65.8182 40.4545C65.6477 40.4545 65.4957 40.4403 65.3622 40.4119C65.2287 40.3864 65.1364 40.3608 65.0852 40.3352L65.3409 39.4489C65.5852 39.5114 65.8011 39.5341 65.9886 39.517C66.1761 39.5 66.3423 39.4162 66.4872 39.2656C66.6349 39.1179 66.7699 38.8778 66.892 38.5455L67.0795 38.0341L64.6591 31.4545H65.75L67.5568 36.6705H67.625L69.4318 31.4545H70.5227L67.7443 38.9545C67.6193 39.2926 67.4645 39.5724 67.2798 39.794C67.0952 40.0185 66.8807 40.1847 66.6364 40.2926C66.3949 40.4006 66.1222 40.4545 65.8182 40.4545ZM74.2749 38.1364C73.6839 38.1364 73.1655 37.9957 72.7195 37.7145C72.2763 37.4332 71.9297 37.0398 71.6797 36.5341C71.4325 36.0284 71.3089 35.4375 71.3089 34.7614C71.3089 34.0795 71.4325 33.4844 71.6797 32.9759C71.9297 32.4673 72.2763 32.0724 72.7195 31.7912C73.1655 31.5099 73.6839 31.3693 74.2749 31.3693C74.8658 31.3693 75.3828 31.5099 75.826 31.7912C76.272 32.0724 76.6186 32.4673 76.8658 32.9759C77.1158 33.4844 77.2408 34.0795 77.2408 34.7614C77.2408 35.4375 77.1158 36.0284 76.8658 36.5341C76.6186 37.0398 76.272 37.4332 75.826 37.7145C75.3828 37.9957 74.8658 38.1364 74.2749 38.1364ZM74.2749 37.233C74.7237 37.233 75.093 37.1179 75.3828 36.8878C75.6726 36.6577 75.8871 36.3551 76.0263 35.9801C76.1655 35.6051 76.2351 35.1989 76.2351 34.7614C76.2351 34.3239 76.1655 33.9162 76.0263 33.5384C75.8871 33.1605 75.6726 32.8551 75.3828 32.6222C75.093 32.3892 74.7237 32.2727 74.2749 32.2727C73.826 32.2727 73.4567 32.3892 73.1669 32.6222C72.8771 32.8551 72.6626 33.1605 72.5234 33.5384C72.3842 33.9162 72.3146 34.3239 72.3146 34.7614C72.3146 35.1989 72.3842 35.6051 72.5234 35.9801C72.6626 36.3551 72.8771 36.6577 73.1669 36.8878C73.4567 37.1179 73.826 37.233 74.2749 37.233ZM82.9009 35.3239V31.4545H83.9066V38H82.9009V36.892H82.8327C82.6793 37.2244 82.4407 37.5071 82.1168 37.7401C81.793 37.9702 81.3839 38.0852 80.8896 38.0852C80.4805 38.0852 80.1168 37.9957 79.7987 37.8168C79.4805 37.6349 79.2305 37.3622 79.0487 36.9986C78.8668 36.6321 78.7759 36.1705 78.7759 35.6136V31.4545H79.7816V35.5455C79.7816 36.0227 79.9151 36.4034 80.1822 36.6875C80.4521 36.9716 80.7958 37.1136 81.2134 37.1136C81.4634 37.1136 81.7177 37.0497 81.9762 36.9219C82.2376 36.794 82.4563 36.598 82.6325 36.3338C82.8114 36.0696 82.9009 35.733 82.9009 35.3239ZM88.5952 31.4545V32.3068H85.2031V31.4545H88.5952ZM86.1918 29.8864H87.1974V36.125C87.1974 36.4091 87.2386 36.6222 87.321 36.7642C87.4063 36.9034 87.5142 36.9972 87.6449 37.0455C87.7784 37.0909 87.919 37.1136 88.0668 37.1136C88.1776 37.1136 88.2685 37.108 88.3395 37.0966C88.4105 37.0824 88.4673 37.071 88.5099 37.0625L88.7145 37.9659C88.6463 37.9915 88.5511 38.017 88.429 38.0426C88.3068 38.071 88.152 38.0852 87.9645 38.0852C87.6804 38.0852 87.402 38.0241 87.1293 37.902C86.8594 37.7798 86.6349 37.5938 86.456 37.3438C86.2798 37.0938 86.1918 36.7784 86.1918 36.3977V29.8864ZM94.233 35.3239V31.4545H95.2386V38H94.233V36.892H94.1648C94.0114 37.2244 93.7727 37.5071 93.4489 37.7401C93.125 37.9702 92.7159 38.0852 92.2216 38.0852C91.8125 38.0852 91.4489 37.9957 91.1307 37.8168C90.8125 37.6349 90.5625 37.3622 90.3807 36.9986C90.1989 36.6321 90.108 36.1705 90.108 35.6136V31.4545H91.1136V35.5455C91.1136 36.0227 91.2472 36.4034 91.5142 36.6875C91.7841 36.9716 92.1278 37.1136 92.5455 37.1136C92.7955 37.1136 93.0497 37.0497 93.3082 36.9219C93.5696 36.794 93.7884 36.598 93.9645 36.3338C94.1435 36.0696 94.233 35.733 94.233 35.3239ZM97.217 38V29.2727H98.2227V32.4943H98.3079C98.3817 32.3807 98.484 32.2358 98.6147 32.0597C98.7482 31.8807 98.9386 31.7216 99.1857 31.5824C99.4357 31.4403 99.7738 31.3693 100.2 31.3693C100.751 31.3693 101.237 31.5071 101.657 31.7827C102.078 32.0582 102.406 32.4489 102.642 32.9545C102.877 33.4602 102.995 34.0568 102.995 34.7443C102.995 35.4375 102.877 36.0384 102.642 36.5469C102.406 37.0526 102.079 37.4446 101.662 37.723C101.244 37.9986 100.762 38.1364 100.217 38.1364C99.7965 38.1364 99.4599 38.0668 99.207 37.9276C98.9542 37.7855 98.7596 37.625 98.6232 37.446C98.4869 37.2642 98.3817 37.1136 98.3079 36.9943H98.1886V38H97.217ZM98.2056 34.7273C98.2056 35.2216 98.2781 35.6577 98.4229 36.0355C98.5678 36.4105 98.7795 36.7045 99.0579 36.9176C99.3363 37.1278 99.6772 37.233 100.081 37.233C100.501 37.233 100.852 37.1222 101.133 36.9006C101.417 36.6761 101.63 36.375 101.772 35.9972C101.917 35.6165 101.99 35.1932 101.99 34.7273C101.99 34.267 101.919 33.8523 101.777 33.483C101.637 33.1108 101.426 32.8168 101.142 32.6009C100.86 32.3821 100.507 32.2727 100.081 32.2727C99.6715 32.2727 99.3278 32.3764 99.0494 32.5838C98.771 32.7884 98.5607 33.0753 98.4187 33.4446C98.2766 33.8111 98.2056 34.2386 98.2056 34.7273ZM107.278 38.1364C106.647 38.1364 106.103 37.9972 105.646 37.7188C105.191 37.4375 104.841 37.0455 104.593 36.5426C104.349 36.0369 104.227 35.4489 104.227 34.7784C104.227 34.108 104.349 33.517 104.593 33.0057C104.841 32.4915 105.184 32.0909 105.625 31.804C106.068 31.5142 106.585 31.3693 107.176 31.3693C107.517 31.3693 107.853 31.4261 108.186 31.5398C108.518 31.6534 108.821 31.8381 109.093 32.0938C109.366 32.3466 109.583 32.6818 109.745 33.0994C109.907 33.517 109.988 34.0312 109.988 34.642V35.0682H104.943V34.1989H108.966C108.966 33.8295 108.892 33.5 108.744 33.2102C108.599 32.9205 108.392 32.6918 108.122 32.5241C107.855 32.3565 107.539 32.2727 107.176 32.2727C106.775 32.2727 106.429 32.3722 106.136 32.571C105.846 32.767 105.623 33.0227 105.467 33.3381C105.311 33.6534 105.233 33.9915 105.233 34.3523V34.9318C105.233 35.4261 105.318 35.8452 105.488 36.1889C105.662 36.5298 105.902 36.7898 106.208 36.9688C106.515 37.1449 106.872 37.233 107.278 37.233C107.542 37.233 107.781 37.196 107.994 37.1222C108.21 37.0455 108.396 36.9318 108.552 36.7812C108.708 36.6278 108.829 36.4375 108.914 36.2102L109.886 36.483C109.784 36.8125 109.612 37.1023 109.37 37.3523C109.129 37.5994 108.831 37.7926 108.475 37.9318C108.12 38.0682 107.721 38.1364 107.278 38.1364ZM112.251 38.0682C112.041 38.0682 111.86 37.9929 111.71 37.8423C111.559 37.6918 111.484 37.5114 111.484 37.3011C111.484 37.0909 111.559 36.9105 111.71 36.7599C111.86 36.6094 112.041 36.5341 112.251 36.5341C112.461 36.5341 112.642 36.6094 112.792 36.7599C112.943 36.9105 113.018 37.0909 113.018 37.3011C113.018 37.4403 112.983 37.5682 112.912 37.6847C112.843 37.8011 112.751 37.8949 112.635 37.9659C112.521 38.0341 112.393 38.0682 112.251 38.0682ZM117.482 38.1364C116.868 38.1364 116.34 37.9915 115.897 37.7017C115.453 37.4119 115.113 37.0128 114.874 36.5043C114.635 35.9957 114.516 35.4148 114.516 34.7614C114.516 34.0966 114.638 33.5099 114.882 33.0014C115.13 32.4901 115.473 32.0909 115.914 31.804C116.357 31.5142 116.874 31.3693 117.465 31.3693C117.925 31.3693 118.34 31.4545 118.709 31.625C119.078 31.7955 119.381 32.0341 119.617 32.3409C119.853 32.6477 119.999 33.0057 120.056 33.4148H119.05C118.973 33.1165 118.803 32.8523 118.539 32.6222C118.277 32.3892 117.925 32.2727 117.482 32.2727C117.09 32.2727 116.746 32.375 116.451 32.5795C116.158 32.7812 115.929 33.0668 115.765 33.4361C115.603 33.8026 115.522 34.233 115.522 34.7273C115.522 35.233 115.601 35.6733 115.76 36.0483C115.922 36.4233 116.15 36.7145 116.442 36.9219C116.738 37.1293 117.084 37.233 117.482 37.233C117.743 37.233 117.98 37.1875 118.194 37.0966C118.407 37.0057 118.587 36.875 118.735 36.7045C118.882 36.5341 118.988 36.3295 119.05 36.0909H120.056C119.999 36.4773 119.858 36.8253 119.634 37.1349C119.412 37.4418 119.118 37.6861 118.752 37.8679C118.388 38.0469 117.965 38.1364 117.482 38.1364ZM124.185 38.1364C123.594 38.1364 123.076 37.9957 122.63 37.7145C122.186 37.4332 121.84 37.0398 121.59 36.5341C121.343 36.0284 121.219 35.4375 121.219 34.7614C121.219 34.0795 121.343 33.4844 121.59 32.9759C121.84 32.4673 122.186 32.0724 122.63 31.7912C123.076 31.5099 123.594 31.3693 124.185 31.3693C124.776 31.3693 125.293 31.5099 125.736 31.7912C126.182 32.0724 126.529 32.4673 126.776 32.9759C127.026 33.4844 127.151 34.0795 127.151 34.7614C127.151 35.4375 127.026 36.0284 126.776 36.5341C126.529 37.0398 126.182 37.4332 125.736 37.7145C125.293 37.9957 124.776 38.1364 124.185 38.1364ZM124.185 37.233C124.634 37.233 125.003 37.1179 125.293 36.8878C125.583 36.6577 125.797 36.3551 125.936 35.9801C126.076 35.6051 126.145 35.1989 126.145 34.7614C126.145 34.3239 126.076 33.9162 125.936 33.5384C125.797 33.1605 125.583 32.8551 125.293 32.6222C125.003 32.3892 124.634 32.2727 124.185 32.2727C123.736 32.2727 123.367 32.3892 123.077 32.6222C122.787 32.8551 122.573 33.1605 122.434 33.5384C122.294 33.9162 122.225 34.3239 122.225 34.7614C122.225 35.1989 122.294 35.6051 122.434 35.9801C122.573 36.3551 122.787 36.6577 123.077 36.8878C123.367 37.1179 123.736 37.233 124.185 37.233ZM128.686 38V31.4545H129.658V32.4773H129.743C129.879 32.1278 130.099 31.8565 130.403 31.6634C130.707 31.4673 131.072 31.3693 131.499 31.3693C131.93 31.3693 132.29 31.4673 132.577 31.6634C132.866 31.8565 133.092 32.1278 133.254 32.4773H133.322C133.49 32.1392 133.741 31.8707 134.077 31.6719C134.412 31.4702 134.814 31.3693 135.283 31.3693C135.868 31.3693 136.347 31.5526 136.719 31.919C137.091 32.2827 137.277 32.8494 137.277 33.6193V38H136.271V33.6193C136.271 33.1364 136.139 32.7912 135.875 32.5838C135.611 32.3764 135.3 32.2727 134.942 32.2727C134.482 32.2727 134.125 32.4119 133.872 32.6903C133.619 32.9659 133.493 33.3153 133.493 33.7386V38H132.47V33.517C132.47 33.1449 132.349 32.8452 132.108 32.6179C131.866 32.3878 131.555 32.2727 131.175 32.2727C130.913 32.2727 130.669 32.3423 130.442 32.4815C130.217 32.6207 130.036 32.8139 129.896 33.0611C129.76 33.3054 129.692 33.5881 129.692 33.9091V38H128.686ZM142.201 28.8636L139.388 39.3125H138.468L141.281 28.8636H142.201ZM144.876 38L142.882 31.4545H143.939L145.353 36.4659H145.422L146.819 31.4545H147.893L149.274 36.4489H149.342L150.757 31.4545H151.814L149.819 38H148.831L147.399 32.9716H147.297L145.865 38H144.876ZM155.069 38.1534C154.654 38.1534 154.278 38.0753 153.94 37.919C153.602 37.7599 153.333 37.5312 153.135 37.233C152.936 36.9318 152.836 36.5682 152.836 36.142C152.836 35.767 152.91 35.4631 153.058 35.2301C153.206 34.9943 153.403 34.8097 153.65 34.6761C153.897 34.5426 154.17 34.4432 154.468 34.3778C154.77 34.3097 155.072 34.2557 155.376 34.2159C155.774 34.1648 156.096 34.1264 156.343 34.1009C156.593 34.0724 156.775 34.0256 156.889 33.9602C157.005 33.8949 157.064 33.7812 157.064 33.6193V33.5852C157.064 33.1648 156.949 32.8381 156.718 32.6051C156.491 32.3722 156.146 32.2557 155.683 32.2557C155.203 32.2557 154.826 32.3608 154.554 32.571C154.281 32.7812 154.089 33.0057 153.978 33.2443L153.024 32.9034C153.194 32.5057 153.422 32.196 153.706 31.9744C153.993 31.75 154.305 31.5937 154.643 31.5057C154.984 31.4148 155.319 31.3693 155.649 31.3693C155.859 31.3693 156.1 31.3949 156.373 31.446C156.649 31.4943 156.914 31.5952 157.17 31.7486C157.429 31.902 157.643 32.1335 157.814 32.4432C157.984 32.7528 158.069 33.1676 158.069 33.6875V38H157.064V37.1136H157.012C156.944 37.2557 156.831 37.4077 156.672 37.5696C156.512 37.7315 156.301 37.8693 156.037 37.983C155.772 38.0966 155.45 38.1534 155.069 38.1534ZM155.223 37.25C155.62 37.25 155.956 37.1719 156.228 37.0156C156.504 36.8594 156.711 36.6577 156.85 36.4105C156.993 36.1634 157.064 35.9034 157.064 35.6307V34.7102C157.021 34.7614 156.927 34.8082 156.782 34.8509C156.64 34.8906 156.475 34.9261 156.288 34.9574C156.103 34.9858 155.923 35.0114 155.747 35.0341C155.574 35.054 155.433 35.071 155.325 35.0852C155.064 35.1193 154.819 35.1747 154.592 35.2514C154.368 35.3253 154.186 35.4375 154.047 35.5881C153.91 35.7358 153.842 35.9375 153.842 36.1932C153.842 36.5426 153.971 36.8068 154.23 36.9858C154.491 37.1619 154.822 37.25 155.223 37.25ZM162.751 31.4545V32.3068H159.359V31.4545H162.751ZM160.348 29.8864H161.354V36.125C161.354 36.4091 161.395 36.6222 161.477 36.7642C161.563 36.9034 161.67 36.9972 161.801 37.0455C161.935 37.0909 162.075 37.1136 162.223 37.1136C162.334 37.1136 162.425 37.108 162.496 37.0966C162.567 37.0824 162.624 37.071 162.666 37.0625L162.871 37.9659C162.803 37.9915 162.707 38.017 162.585 38.0426C162.463 38.071 162.308 38.0852 162.121 38.0852C161.837 38.0852 161.558 38.0241 161.286 37.902C161.016 37.7798 160.791 37.5938 160.612 37.3438C160.436 37.0938 160.348 36.7784 160.348 36.3977V29.8864ZM166.853 38.1364C166.239 38.1364 165.711 37.9915 165.268 37.7017C164.825 37.4119 164.484 37.0128 164.245 36.5043C164.006 35.9957 163.887 35.4148 163.887 34.7614C163.887 34.0966 164.009 33.5099 164.254 33.0014C164.501 32.4901 164.844 32.0909 165.285 31.804C165.728 31.5142 166.245 31.3693 166.836 31.3693C167.296 31.3693 167.711 31.4545 168.08 31.625C168.45 31.7955 168.752 32.0341 168.988 32.3409C169.224 32.6477 169.37 33.0057 169.427 33.4148H168.421C168.344 33.1165 168.174 32.8523 167.91 32.6222C167.648 32.3892 167.296 32.2727 166.853 32.2727C166.461 32.2727 166.117 32.375 165.822 32.5795C165.529 32.7812 165.3 33.0668 165.136 33.4361C164.974 33.8026 164.893 34.233 164.893 34.7273C164.893 35.233 164.972 35.6733 165.131 36.0483C165.293 36.4233 165.521 36.7145 165.813 36.9219C166.109 37.1293 166.455 37.233 166.853 37.233C167.114 37.233 167.352 37.1875 167.565 37.0966C167.778 37.0057 167.958 36.875 168.106 36.7045C168.254 36.5341 168.359 36.3295 168.421 36.0909H169.427C169.37 36.4773 169.229 36.8253 169.005 37.1349C168.783 37.4418 168.489 37.6861 168.123 37.8679C167.759 38.0469 167.336 38.1364 166.853 38.1364ZM171.903 34.0625V38H170.897V29.2727H171.903V32.4773H171.988C172.141 32.1392 172.371 31.8707 172.678 31.6719C172.988 31.4702 173.4 31.3693 173.914 31.3693C174.36 31.3693 174.751 31.4588 175.086 31.6378C175.421 31.8139 175.681 32.0852 175.866 32.4517C176.053 32.8153 176.147 33.2784 176.147 33.8409V38H175.141V33.9091C175.141 33.3892 175.006 32.9872 174.737 32.7031C174.469 32.4162 174.099 32.2727 173.624 32.2727C173.295 32.2727 172.999 32.3423 172.738 32.4815C172.479 32.6207 172.275 32.8239 172.124 33.0909C171.977 33.358 171.903 33.6818 171.903 34.0625ZM181.072 28.8636L178.26 39.3125H177.339L180.152 28.8636H181.072ZM183.577 35.5455V35.4943C183.582 34.9517 183.639 34.5199 183.747 34.1989C183.855 33.8778 184.009 33.6179 184.207 33.419C184.406 33.2202 184.645 33.0369 184.923 32.8693C185.091 32.767 185.241 32.6463 185.375 32.5071C185.509 32.3651 185.614 32.2017 185.69 32.017C185.77 31.8324 185.81 31.6278 185.81 31.4034C185.81 31.125 185.744 30.8835 185.614 30.679C185.483 30.4744 185.308 30.3168 185.089 30.206C184.871 30.0952 184.628 30.0398 184.361 30.0398C184.128 30.0398 183.903 30.0881 183.688 30.1847C183.472 30.2812 183.291 30.4332 183.146 30.6406C183.001 30.848 182.918 31.1193 182.895 31.4545H181.821C181.844 30.9716 181.969 30.5582 182.196 30.2145C182.426 29.8707 182.729 29.608 183.104 29.4261C183.482 29.2443 183.901 29.1534 184.361 29.1534C184.861 29.1534 185.295 29.2528 185.665 29.4517C186.037 29.6506 186.324 29.9233 186.526 30.2699C186.73 30.6165 186.832 31.0114 186.832 31.4545C186.832 31.767 186.784 32.0497 186.688 32.3026C186.594 32.5554 186.457 32.7812 186.278 32.9801C186.102 33.179 185.889 33.3551 185.639 33.5085C185.389 33.6648 185.189 33.8295 185.038 34.0028C184.888 34.1733 184.778 34.3764 184.71 34.6122C184.642 34.848 184.605 35.142 184.599 35.4943V35.5455H183.577ZM184.122 38.0682C183.912 38.0682 183.732 37.9929 183.581 37.8423C183.43 37.6918 183.355 37.5114 183.355 37.3011C183.355 37.0909 183.43 36.9105 183.581 36.7599C183.732 36.6094 183.912 36.5341 184.122 36.5341C184.332 36.5341 184.513 36.6094 184.663 36.7599C184.814 36.9105 184.889 37.0909 184.889 37.3011C184.889 37.4403 184.854 37.5682 184.783 37.6847C184.714 37.8011 184.622 37.8949 184.506 37.9659C184.392 38.0341 184.264 38.0682 184.122 38.0682ZM193.699 31.4545L191.278 38H190.255L187.835 31.4545H188.926L190.733 36.6705H190.801L192.608 31.4545H193.699ZM194.955 33.7898V32.8693H200.205V33.7898H194.955ZM194.955 36.3125V35.392H200.205V36.3125H194.955ZM202.795 31.4545L204.364 34.1307L205.932 31.4545H207.091L204.977 34.7273L207.091 38H205.932L204.364 35.4602L202.795 38H201.636L203.716 34.7273L201.636 31.4545H202.795ZM209.276 31.4545L210.844 34.1307L212.412 31.4545H213.571L211.458 34.7273L213.571 38H212.412L210.844 35.4602L209.276 38H208.117L210.196 34.7273L208.117 31.4545H209.276ZM215.756 31.4545L217.325 34.1307L218.893 31.4545H220.052L217.938 34.7273L220.052 38H218.893L217.325 35.4602L215.756 38H214.597L216.677 34.7273L214.597 31.4545H215.756ZM222.237 31.4545L223.805 34.1307L225.373 31.4545H226.532L224.419 34.7273L226.532 38H225.373L223.805 35.4602L222.237 38H221.078L223.157 34.7273L221.078 31.4545H222.237ZM228.717 31.4545L230.286 34.1307L231.854 31.4545H233.013L230.899 34.7273L233.013 38H231.854L230.286 35.4602L228.717 38H227.558L229.638 34.7273L227.558 31.4545H228.717ZM235.198 31.4545L236.766 34.1307L238.334 31.4545H239.493L237.38 34.7273L239.493 38H238.334L236.766 35.4602L235.198 38H234.039L236.118 34.7273L234.039 31.4545H235.198ZM241.678 31.4545L243.246 34.1307L244.815 31.4545H245.974L243.86 34.7273L245.974 38H244.815L243.246 35.4602L241.678 38H240.519L242.599 34.7273L240.519 31.4545H241.678ZM248.159 31.4545L249.727 34.1307L251.295 31.4545H252.454L250.341 34.7273L252.454 38H251.295L249.727 35.4602L248.159 38H247L249.079 34.7273L247 31.4545H248.159ZM254.639 31.4545L256.207 34.1307L257.776 31.4545H258.935L256.821 34.7273L258.935 38H257.776L256.207 35.4602L254.639 38H253.48L255.56 34.7273L253.48 31.4545H254.639ZM261.12 31.4545L262.688 34.1307L264.256 31.4545H265.415L263.301 34.7273L265.415 38H264.256L262.688 35.4602L261.12 38H259.961L262.04 34.7273L259.961 31.4545H261.12Z" fill="black"/>
<path d="M179.5 67L173.005 55.75H185.995L179.5 67Z" fill="#D9D9D9"/>
</svg>
